<svg width="61" height="24" viewBox="0 0 61 24" fill="none" xmlns="http://www.w3.org/2000/svg">
<path d="M28.8502 12.0284V18.8389H26.5977V2.02005H32.5718C33.2849 2.00576 33.9939 2.12707 34.6579 2.37698C35.3219 2.62688 35.9277 3.00044 36.4403 3.47608C36.9582 3.92285 37.3703 4.47076 37.649 5.08299C37.9277 5.69522 38.0666 6.35759 38.0563 7.02557C38.0711 7.69713 37.9344 8.36382 37.6555 8.97995C37.3765 9.59608 36.962 10.1471 36.4403 10.5952C35.3957 11.5507 34.1062 12.028 32.5718 12.0271H28.8502V12.0284ZM28.8502 4.0907V9.96179H32.6278C33.0419 9.97356 33.454 9.9023 33.8378 9.75256C34.2216 9.60282 34.5686 9.37791 34.8565 9.09219C35.143 8.82506 35.3707 8.50554 35.5262 8.15253C35.6817 7.79953 35.7618 7.4202 35.7618 7.03698C35.7618 6.65376 35.6817 6.27443 35.5262 5.92142C35.3707 5.56841 35.143 5.2489 34.8565 4.98176C34.5722 4.69003 34.2264 4.4596 33.8422 4.30575C33.4579 4.1519 33.044 4.07814 32.6278 4.08936H28.8502V4.0907Z" fill="#5F6368"/>
<path d="M43.248 6.95581C44.9129 6.95581 46.2272 7.38256 47.1907 8.23605C48.1542 9.08953 48.6355 10.2597 48.6345 11.7466V18.8389H46.4799V17.242H46.382C45.4493 18.5571 44.2087 19.2147 42.6604 19.2147C41.3387 19.2147 40.233 18.8389 39.3432 18.0874C38.9161 17.7425 38.5747 17.3105 38.3438 16.823C38.1129 16.3355 37.9983 15.8047 38.0084 15.2693C38.0084 14.0785 38.4776 13.1315 39.4159 12.4283C40.3542 11.7252 41.6069 11.3727 43.1739 11.3709C44.5114 11.3709 45.613 11.6057 46.4785 12.0754V11.5816C46.4811 11.2166 46.3989 10.8556 46.238 10.5249C46.0771 10.1941 45.8414 9.90184 45.5481 9.66926C44.9525 9.15379 44.1762 8.87252 43.3739 8.88153C42.1157 8.88153 41.12 9.39058 40.3869 10.4087L38.403 9.21031C39.4943 7.70731 41.1093 6.95581 43.248 6.95581ZM40.3337 15.3163C40.3322 15.5912 40.3992 15.8626 40.5292 16.1077C40.6591 16.3528 40.8483 16.5645 41.0808 16.7253C41.579 17.1012 42.1974 17.3003 42.8311 17.2889C43.7816 17.2874 44.6928 16.9245 45.3648 16.2798C46.111 15.6061 46.4841 14.8157 46.4841 13.9085C45.7818 13.3717 44.8024 13.1034 43.546 13.1034C42.631 13.1034 41.8681 13.3149 41.2571 13.7381C40.6401 14.1675 40.3337 14.6896 40.3337 15.3163Z" fill="#5F6368"/>
<path d="M61.0015 7.33154L53.4799 23.9116H51.1546L53.9458 18.1102L49 7.33154H51.4484L55.0231 15.5981H55.0721L58.5488 7.33154H61.0015Z" fill="#5F6368"/>
<path d="M19.7436 10.5602C19.7445 9.90179 19.6864 9.2445 19.5702 8.59558H10.0703V12.3169H15.5114C15.4 12.9112 15.1644 13.4778 14.8186 13.9824C14.4728 14.487 14.0241 14.9193 13.4995 15.2531V17.6686H16.7468C18.6482 15.9872 19.7436 13.5005 19.7436 10.5602Z" fill="#4285F4"/>
<path d="M10.0707 20.0023C12.7891 20.0023 15.0781 19.1462 16.7472 17.67L13.4999 15.2545C12.5961 15.8423 11.432 16.1777 10.0707 16.1777C7.4432 16.1777 5.21304 14.4788 4.41555 12.1895H1.07031V14.6788C1.90875 16.279 3.19439 17.6243 4.78371 18.5643C6.37304 19.5044 8.20349 20.0022 10.0707 20.0023Z" fill="#34A853"/>
<path d="M4.41785 12.1892C3.99625 10.9896 3.99625 9.69046 4.41785 8.4908V6.00146H1.07264C0.367326 7.34766 0 8.8334 0 10.34C0 11.8466 0.367326 13.3324 1.07264 14.6786L4.41785 12.1892Z" fill="#FBBC04"/>
<path d="M10.0706 4.50259C11.5072 4.48008 12.8953 5.0007 13.9349 5.95191L16.8101 3.19418C14.9869 1.55172 12.5717 0.649983 10.0706 0.678002C8.20344 0.678084 6.373 1.17594 4.78369 2.116C3.19438 3.05605 1.90874 4.40131 1.07031 6.00157L4.41553 8.49091C5.21301 6.20152 7.44316 4.50259 10.0706 4.50259Z" fill="#EA4335"/>
</svg>
