<svg width="40" height="24" viewBox="0 0 40 24" fill="none" xmlns="http://www.w3.org/2000/svg">
<path d="M20.0927 20.8544C22.5012 18.7144 24.0225 15.6573 24.0225 12.2944C24.0225 8.87047 22.5012 5.81335 20.0927 3.7345C17.9376 1.90023 15.1487 0.738525 12.0429 0.738525C5.38762 0.738525 0 5.93563 0 12.2944C0 18.7144 5.38762 23.9115 12.0429 23.9115C15.1487 23.8504 17.9376 22.6887 20.0927 20.8544Z" fill="#3362AB"/>
<path d="M20.0938 20.8545C22.5023 18.7145 24.0236 15.6574 24.0236 12.2946C24.0236 8.87058 22.5023 5.81346 20.0938 3.73462" fill="#3362AB"/>
<path d="M20.0938 20.8545C22.5023 18.7145 24.0236 15.6574 24.0236 12.2946C24.0236 8.87058 22.5023 5.81346 20.0938 3.73462" stroke="#3362AB" stroke-width="0.3097"/>
<path d="M28.1409 0.677368C25.0351 0.677368 22.1829 1.83907 20.0912 3.67334C19.6475 4.04019 19.2672 4.46819 18.8869 4.89619H21.2955C21.6124 5.26304 21.9293 5.69104 22.1828 6.11904H17.9362C17.6826 6.48589 17.4291 6.91389 17.2389 7.34188H22.8801C23.0702 7.76988 23.2604 8.13673 23.3872 8.56473H16.7319C16.6051 8.99273 16.4783 9.35958 16.3516 9.78758H23.7041C23.8942 10.5824 23.9576 11.3773 23.9576 12.2333C23.9576 13.5173 23.7674 14.7401 23.3238 15.9018H16.6685C16.7952 16.3298 16.9854 16.7578 17.1755 17.1247H22.8167C22.6265 17.5527 22.373 17.9807 22.1195 18.3475H17.8728C18.1263 18.7755 18.4432 19.2035 18.7601 19.5704H21.1687C20.7884 19.9984 20.4081 20.4263 19.9644 20.7932C22.1195 22.6275 24.9083 23.7892 28.0141 23.7892C34.6694 23.7892 39.9937 18.5921 39.9937 12.1721C40.1838 5.87447 34.7962 0.677368 28.1409 0.677368Z" fill="#C9191B"/>
<path d="M10.5237 15.107H9.00253L9.8899 10.5824L7.86163 15.107H6.53056L6.27703 10.6436L5.38964 15.107H4.05859L5.1995 9.2373H7.54471L7.67146 12.9059L9.31945 9.2373H11.728L10.5237 15.107Z" fill="white"/>
<path d="M27.2545 15.1069C26.8742 15.2291 26.4939 15.2903 26.1769 15.2903C25.4163 15.2903 24.9727 14.9234 24.9727 14.2509C24.9727 14.1286 24.9726 13.9452 25.036 13.8229L25.0994 13.3337L25.1628 12.9669L25.86 9.29834H27.3179L27.1277 10.3989H27.8883L27.6982 11.5606H26.9375L26.5573 13.5783C26.5573 13.6394 26.5573 13.7617 26.5573 13.7617C26.5573 14.0063 26.7474 14.1286 27.0643 14.1286C27.2545 14.1286 27.3812 14.1286 27.4446 14.0674L27.2545 15.1069Z" fill="white"/>
<path d="M31.5647 10.399C31.4379 10.3379 31.4379 10.3379 31.3745 10.3379C31.3112 10.3379 31.2478 10.3379 31.2478 10.3379C31.1844 10.3379 31.121 10.3379 31.0576 10.3379C30.5506 10.3379 30.2337 10.5213 29.7266 11.1327L29.8533 10.399H28.6491L27.7617 15.1682H29.2829C29.79 12.2333 30.0435 11.7442 30.7407 11.7442C30.8041 11.7442 30.8675 11.7442 30.9309 11.7442L31.121 11.8053L31.5647 10.399Z" fill="white"/>
<path d="M21.297 11.8663C21.297 12.4777 21.6773 12.9057 22.438 13.2114C23.0718 13.456 23.1352 13.5172 23.1352 13.7617C23.1352 14.0674 22.8816 14.1897 22.2478 14.1897C21.8041 14.1897 21.3604 14.1286 20.9167 14.0063L20.7266 15.1069H20.79L21.0435 15.168C21.1069 15.168 21.297 15.2291 21.4238 15.2291C21.8041 15.2291 22.0576 15.2903 22.2478 15.2903C23.8324 15.2903 24.593 14.8011 24.593 13.7006C24.593 13.028 24.2761 12.6612 23.5155 12.3554C22.8816 12.1109 22.8182 12.0497 22.8182 11.8052C22.8182 11.5606 23.0718 11.4383 23.5789 11.4383C23.8958 11.4383 24.2761 11.4383 24.6564 11.4995L24.8466 10.3989C24.4663 10.3378 23.8958 10.2766 23.5155 10.2766C21.8675 10.2766 21.297 11.0103 21.297 11.8663Z" fill="white"/>
<path d="M14.3237 13.0281C14.1335 13.0281 14.0701 13.0281 14.0067 13.0281C13.1828 13.0281 12.7391 13.2726 12.7391 13.7618C12.7391 14.0675 12.9292 14.2509 13.2462 14.2509C13.8166 14.1898 14.2603 13.7006 14.3237 13.0281ZM15.4012 15.1069H14.1335L14.1969 14.6178C13.8166 14.9847 13.3095 15.1681 12.6123 15.1681C11.7883 15.1681 11.2812 14.6178 11.2812 13.8841C11.2812 12.7223 12.232 12.0498 13.88 12.0498C14.0701 12.0498 14.2603 12.0498 14.5138 12.1109C14.5772 11.9275 14.5772 11.8663 14.5772 11.8052C14.5772 11.4995 14.3237 11.3772 13.6264 11.3772C13.1828 11.3772 12.7391 11.4383 12.4222 11.4995L12.232 11.5606L12.1052 11.6218L12.2954 10.5212C13.056 10.3378 13.4997 10.2766 14.0701 10.2766C15.3378 10.2766 16.035 10.7658 16.035 11.6829C16.035 11.9275 16.035 12.1109 15.9083 12.6001L15.5913 14.3121L15.528 14.6178L15.4646 14.8624V15.0458L15.4012 15.1069Z" fill="white"/>
<path d="M19.5226 12.1722C19.5226 12.0499 19.5226 11.9887 19.5226 11.9276C19.5226 11.5607 19.269 11.3162 18.8253 11.3162C18.3183 11.3162 18.0013 11.6219 17.8746 12.1722H19.5226ZM20.2832 15.0459C19.7761 15.1682 19.269 15.2293 18.7619 15.2293C17.1139 15.2293 16.2266 14.4956 16.2266 13.0893C16.2266 11.4384 17.3041 10.2156 18.8253 10.2156C20.0296 10.2156 20.8536 10.8882 20.8536 11.9276C20.8536 12.2944 20.7902 12.6002 20.6635 13.0893H17.6844C17.6844 13.1504 17.6844 13.2116 17.6844 13.2116C17.6844 13.7619 18.1281 14.0676 19.0155 14.0676C19.5225 14.0676 20.0296 13.9453 20.6001 13.7619L20.2832 15.0459Z" fill="white"/>
<path d="M34.6723 12.3554C34.6723 11.8663 34.4822 11.3772 33.8483 11.3772C33.0877 11.3772 32.644 12.2332 32.644 13.028C32.644 13.7006 32.961 14.1286 33.5314 14.1286C33.8483 14.1286 34.5456 13.7006 34.6723 12.9669C34.6723 12.7834 34.6723 12.5389 34.6723 12.3554ZM36.2569 12.9669C36.0034 14.5566 34.8625 15.2903 33.3413 15.2903C31.6299 15.2903 30.9961 14.312 30.9961 13.0892C30.9961 11.3772 32.137 10.2766 33.9117 10.2766C35.4963 10.2766 36.2569 11.1937 36.2569 12.4166C36.3203 12.6612 36.3203 12.6612 36.2569 12.9669Z" fill="white"/>
</svg>
