<svg width="40" height="24" viewBox="0 0 40 24" fill="none" xmlns="http://www.w3.org/2000/svg">
<path d="M40 12.2944C40 18.6689 34.6462 23.9115 28 23.9115C21.4154 23.9115 16 18.6689 16 12.2944C16 5.91994 21.3538 0.677368 27.9385 0.677368C34.6462 0.677368 40 5.91994 40 12.2944Z" fill="#F9B50B"/>
<path d="M23.9385 12.354C23.9385 11.52 23.8154 10.6859 23.6923 9.91145H16.3077C16.3692 9.49442 16.4923 9.13697 16.6154 8.66038H23.2C23.0769 8.24335 22.8923 7.82633 22.7077 7.40931H17.1077C17.2923 6.99229 17.5385 6.63484 17.7846 6.15824H22.0308C21.7846 5.74122 21.4769 5.32419 21.1077 4.90717H18.7692C19.1385 4.49015 19.5077 4.1327 20 3.71568C17.9077 1.80929 15.0769 0.677368 11.9385 0.677368C5.41539 0.856092 0 5.91994 0 12.2944C0 18.6689 5.35385 23.9115 12 23.9115C15.1385 23.9115 17.9077 22.72 20.0616 20.8732C20.4923 20.5157 20.8616 20.0987 21.2923 19.6221H18.8308C18.5231 19.2647 18.2154 18.8476 17.9692 18.4306H22.1539C22.4 18.0732 22.6462 17.6562 22.8308 17.1796H17.2308C17.0462 16.8221 16.8615 16.4051 16.7385 15.9285H23.3231C23.6923 14.8561 23.9385 13.6647 23.9385 12.354Z" fill="#C8191C"/>
<path d="M16.2446 15.2731L16.4292 14.2008C16.3677 14.2008 16.2446 14.2603 16.1215 14.2603C15.6907 14.2603 15.6292 14.022 15.6907 13.9029L16.06 11.7582H16.7369L16.9215 10.5667H16.3061L16.4292 9.85181H15.1369C15.1369 9.85181 14.3984 13.9029 14.3984 14.3795C14.3984 15.0944 14.8292 15.4518 15.4446 15.4518C15.8138 15.4518 16.1215 15.3327 16.2446 15.2731Z" fill="white"/>
<path d="M16.6758 13.3073C16.6758 15.0349 17.9065 15.452 18.8912 15.452C19.8142 15.452 20.245 15.2732 20.245 15.2732L20.4912 14.0817C20.4912 14.0817 19.8142 14.3796 19.1373 14.3796C17.7219 14.3796 17.9681 13.3668 17.9681 13.3668H20.5527C20.5527 13.3668 20.7373 12.5924 20.7373 12.2349C20.7373 11.4604 20.3065 10.4477 18.8912 10.4477C17.6604 10.3881 16.6758 11.7583 16.6758 13.3073ZM18.8912 11.52C19.5681 11.52 19.445 12.2945 19.445 12.3541H18.0296C18.0912 12.2945 18.2142 11.52 18.8912 11.52Z" fill="white"/>
<path d="M26.953 15.2731L27.1992 13.9029C27.1992 13.9029 26.5838 14.2008 26.0915 14.2008C25.2299 14.2008 24.7992 13.5455 24.7992 12.771C24.7992 11.2816 25.5376 10.5072 26.4607 10.5072C27.0761 10.5072 27.63 10.8646 27.63 10.8646L27.8146 9.55398C27.8146 9.55398 27.0761 9.2561 26.3376 9.2561C24.8607 9.2561 23.4453 10.5072 23.4453 12.8306C23.4453 14.3795 24.1838 15.3923 25.7223 15.3923C26.2761 15.4518 26.953 15.2731 26.953 15.2731Z" fill="white"/>
<path d="M9.29062 10.3881C8.42908 10.3881 7.75216 10.6264 7.75216 10.6264L7.56755 11.6987C7.56755 11.6987 8.12139 11.4604 8.98293 11.4604C9.41369 11.4604 9.78292 11.52 9.78292 11.8774C9.78292 12.1157 9.72138 12.1753 9.72138 12.1753H9.16754C8.05985 12.1753 6.89062 12.5923 6.89062 14.0221C6.89062 15.154 7.62908 15.3923 8.12139 15.3923C8.98292 15.3923 9.41369 14.8561 9.47523 14.8561L9.41369 15.3327H10.4598L10.9521 11.937C10.9521 10.4476 9.72138 10.3881 9.29062 10.3881ZM9.53677 13.1285C9.53677 13.3072 9.41369 14.3199 8.67523 14.3199C8.306 14.3199 8.18293 14.0221 8.18293 13.8434C8.18293 13.5455 8.36754 13.1285 9.35215 13.1285C9.47523 13.1285 9.53677 13.1285 9.53677 13.1285Z" fill="white"/>
<path d="M12.1869 15.3922C12.4946 15.3922 14.0946 15.4518 14.0946 13.7837C14.0946 12.2347 12.5561 12.5326 12.5561 11.9369C12.5561 11.639 12.8023 11.5199 13.233 11.5199C13.4176 11.5199 14.0946 11.5794 14.0946 11.5794L14.2792 10.4475C14.2792 10.4475 13.8484 10.3284 13.0484 10.3284C12.1253 10.3284 11.1407 10.6858 11.1407 11.9369C11.1407 13.3667 12.7407 13.2475 12.7407 13.7837C12.7407 14.1411 12.31 14.2007 12.0023 14.2007C11.4484 14.2007 10.8331 14.022 10.8331 14.022L10.6484 15.1539C10.7715 15.273 11.1407 15.3922 12.1869 15.3922Z" fill="white"/>
<path d="M37.537 9.43481L37.2909 11.1029C37.2909 11.1029 36.7986 10.5072 36.0601 10.5072C34.8909 10.5072 33.9062 11.8774 33.9062 13.4859C33.9062 14.4987 34.3986 15.5115 35.5063 15.5115C36.2447 15.5115 36.737 15.0349 36.737 15.0349L36.6755 15.4519H37.9678L38.8909 9.55396L37.537 9.43481ZM36.9216 12.6519C36.9216 13.3072 36.6139 14.2008 35.8755 14.2008C35.4447 14.2008 35.1986 13.8434 35.1986 13.188C35.1986 12.1753 35.6293 11.5795 36.2447 11.5795C36.6755 11.6391 36.9216 11.937 36.9216 12.6519Z" fill="white"/>
<path d="M2.34015 15.3327L3.07862 10.9242L3.2017 15.3327H4.06324L5.72479 10.9242L5.04786 15.3327H6.40172L7.44788 9.43481H5.35556L4.06324 13.0689L4.0017 9.43481H2.15554L1.10938 15.3327H2.34015Z" fill="white"/>
<path d="M22.0325 15.3327C22.4018 13.3072 22.4633 11.6391 23.3864 11.937C23.5095 11.1625 23.6941 10.8051 23.8171 10.5072H23.571C23.0172 10.5072 22.5248 11.2221 22.5248 11.2221L22.6479 10.5668H21.4172L20.6172 15.3327H22.0325Z" fill="white"/>
<path d="M29.9078 10.3881C29.0463 10.3881 28.3693 10.6264 28.3693 10.6264L28.1847 11.6987C28.1847 11.6987 28.7386 11.4604 29.6001 11.4604C30.0309 11.4604 30.4001 11.52 30.4001 11.8774C30.4001 12.1157 30.3386 12.1753 30.3386 12.1753H29.7847C28.677 12.1753 27.5078 12.5923 27.5078 14.0221C27.5078 15.154 28.2463 15.3923 28.7386 15.3923C29.6001 15.3923 30.0309 14.8561 30.0924 14.8561L30.0309 15.3327H31.2001L31.6924 11.937C31.6924 10.4476 30.3386 10.3881 29.9078 10.3881ZM30.2155 13.1285C30.2155 13.3072 30.0924 14.3199 29.3539 14.3199C28.9847 14.3199 28.8616 14.0221 28.8616 13.8434C28.8616 13.5455 29.0463 13.1285 30.0309 13.1285C30.1539 13.1285 30.1539 13.1285 30.2155 13.1285Z" fill="white"/>
<path d="M32.6771 15.3327C33.0463 13.3072 33.1078 11.6391 34.0309 11.937C34.154 11.1625 34.3386 10.8051 34.4617 10.5072H34.2155C33.6617 10.5072 33.1694 11.2221 33.1694 11.2221L33.2925 10.5668H32.0617L31.2617 15.3327H32.6771Z" fill="white"/>
</svg>
