<svg width="54" height="16" viewBox="0 0 54 16" fill="none" xmlns="http://www.w3.org/2000/svg">
<path d="M48.447 0.324219H38.0508C38.6564 3.58601 41.9872 6.65594 45.6209 6.65594H53.8975C53.9984 6.36814 53.9984 5.88846 53.9984 5.60065C53.9984 2.7226 51.4751 0.324219 48.447 0.324219Z" fill="url(#paint0_linear_229_5584)"/>
<path d="M38.9609 7.23145V15.194H44.0077V10.9729H48.4488C50.8712 10.9729 52.9908 9.342 53.6974 7.23145H38.9609Z" fill="#4FAD50"/>
<path d="M21.1953 0.324219V15.0981H25.6364C25.6364 15.0981 26.7467 15.0981 27.3523 14.0429C30.3803 8.38272 31.2887 6.6559 31.2887 6.6559H31.8943V15.0981H36.941V0.324219H32.4999C32.4999 0.324219 31.3897 0.420159 30.7841 1.3795C28.2607 6.27217 26.8476 8.76646 26.8476 8.76646H26.242V0.324219H21.1953Z" fill="#4FAD50"/>
<path d="M0 15.1932V0.419312H5.04673C5.04673 0.419312 6.45982 0.419309 7.2673 2.52986C9.28599 8.09405 9.48787 8.86153 9.48787 8.86153C9.48787 8.86153 9.89159 7.51844 11.7084 2.52986C12.5159 0.419309 13.929 0.419312 13.929 0.419312H18.9757V15.1932H13.929V7.23065H13.3234L10.4972 15.1932H8.27664L5.45049 7.23065H4.84488V15.1932H0Z" fill="#4FAD50"/>
<defs>
<linearGradient id="paint0_linear_229_5584" x1="38.0328" y1="3.53546" x2="53.9627" y2="3.53546" gradientUnits="userSpaceOnUse">
<stop stop-color="#27B1E6"/>
<stop offset="1" stop-color="#148ACA"/>
</linearGradient>
</defs>
</svg>
