<svg width="23" height="23" viewBox="0 0 23 23" fill="none" xmlns="http://www.w3.org/2000/svg">
<path d="M18.0732 14.6314C18.4636 14.7901 18.631 15.3193 18.631 15.5839C18.6868 16.0073 18.5752 16.2189 18.4079 16.2189C18.2405 16.2189 18.0174 16.0602 17.7942 15.6897C17.5711 15.3193 17.4595 14.9489 17.5711 14.7372C17.7385 14.6314 17.9058 14.5784 18.0732 14.6314Z" fill="#F28A1A"/>
<path d="M15.7858 16.272C16.009 16.272 16.2879 16.3778 16.5668 16.5895C17.013 16.9599 17.1804 17.3833 16.9573 17.7008C16.8457 17.8596 16.5668 17.9655 16.3437 17.9655C16.0647 17.9655 15.7858 17.8596 15.6185 17.7008C15.1722 17.3304 15.0606 16.8012 15.3396 16.4837C15.3953 16.3778 15.5627 16.272 15.7858 16.272Z" fill="#F28A1A"/>
<path d="M10.487 20.453C4.68569 20.453 0 16.0074 0 10.5563C0 5.10518 4.68569 0.606689 10.487 0.606689C16.2884 0.606689 20.974 5.05225 20.974 10.5563C20.974 12.4086 20.4162 14.1551 19.5237 15.6369C19.4679 15.6899 19.4121 15.6899 19.4121 15.584C19.0217 13.1495 17.4598 11.8264 15.2285 11.4031C15.0054 11.3501 15.0054 11.2443 15.2843 11.2443C16.0094 11.1914 16.9577 11.1914 17.5156 11.2972C17.5713 11.0326 17.5713 10.768 17.5713 10.5563C17.5713 6.9575 14.4475 3.99379 10.6544 3.99379C6.86119 3.99379 3.7374 6.9575 3.7374 10.5563C3.7374 14.1551 6.86119 17.1188 10.6544 17.1188H10.9891C10.8775 16.5366 10.8217 15.9545 10.8775 15.3194C10.8775 14.896 10.9891 14.8431 11.1564 15.1606C12.1047 16.7483 13.4993 18.1243 16.1768 18.7065C18.3523 19.1828 20.5278 19.712 22.9264 22.517C23.1495 22.7816 22.8149 23.0462 22.5917 22.8345C20.1931 20.8234 18.0176 20.1354 16.0094 20.1354C13.4993 20.1883 11.9931 20.453 10.487 20.453Z" fill="#F28A1A"/>
</svg>
