<svg width="68" height="21" viewBox="0 0 68 21" fill="none" xmlns="http://www.w3.org/2000/svg">
<path d="M63.4271 0.814941H59.1523C57.8599 0.814941 56.8657 1.18669 56.2692 2.39486L48.1172 19.774H53.8833C53.8833 19.774 54.8774 17.4506 55.0763 16.893C55.6727 16.893 61.3394 16.893 62.1347 16.893C62.3336 17.5435 62.8306 19.6811 62.8306 19.6811H68.0002L63.4271 0.814941ZM56.6669 12.9896C57.164 11.8744 58.854 7.69224 58.854 7.69224C58.854 7.78518 59.3511 6.577 59.5499 5.92645L59.9476 7.59931C59.9476 7.59931 61.0412 12.1532 61.24 13.0826H56.6669V12.9896Z" fill="#3362AB"/>
<path d="M48.5141 13.5472C48.5141 17.4506 44.7363 20.0528 38.8708 20.0528C36.3854 20.0528 33.9994 19.5881 32.707 19.0305L33.5024 14.7554L34.1983 15.0342C35.9877 15.7777 37.1807 16.0565 39.3678 16.0565C40.9585 16.0565 42.6486 15.4989 42.6486 14.1978C42.6486 13.3614 41.9526 12.8037 39.7655 11.8744C37.6778 10.945 34.8942 9.45804 34.8942 6.76288C34.8942 3.04542 38.7714 0.536133 44.2392 0.536133C46.3269 0.536133 48.1164 0.907879 49.21 1.37256L48.4146 5.46177L48.017 5.09002C47.0228 4.71827 45.7304 4.34653 43.8415 4.34653C41.7538 4.43947 40.7597 5.27589 40.7597 6.01939C40.7597 6.85581 41.9526 7.50637 43.8415 8.3428C47.0228 9.73684 48.5141 11.3168 48.5141 13.5472Z" fill="#3362AB"/>
<path d="M0 1.00089L0.099415 0.62915H8.64911C9.84209 0.62915 10.7368 1.00089 11.0351 2.20906L12.924 10.5733C11.0351 6.11237 6.66081 2.48787 0 1.00089Z" fill="#F9B50B"/>
<path d="M24.9541 0.815104L16.305 19.6812H10.4395L5.46875 3.882C9.04769 6.01953 12.0301 9.36523 13.1237 11.6886L13.7202 13.6403L19.0886 0.722168H24.9541V0.815104Z" fill="#3362AB"/>
<path d="M27.2374 0.721924H32.7052L29.2257 19.681H23.7578L27.2374 0.721924Z" fill="#3362AB"/>
</svg>
